# xmcd CD database file
#
# Track frame offsets:
#	150
#	12864
#	30301
#	41814
#	60603
#	71841
#	87258
#	103152
#	119665
#	136818
#	157231
#	171107
#	187563
#	205902
#	220459
#
# Disc length: 3180 seconds
#
# Revision: 0
# Processed by: cddbd v1.5PL3 Copyright (c) Steve Scherf et al.
# Submitted via: CDex 1.51
#
DISCID=d50c6a0f
DTITLE=Sojiro - Heart Obtained  Vol 06
DYEAR=1900
DGENRE=New Age
TTITLE0=This Large Field is Full
TTITLE1=Marchen of Flower
TTITLE2=Young Men
TTITLE3=Language to Present
TTITLE4=Star of Night to Look Up At
TTITLE5=Rare
TTITLE6=dawn obtained
TTITLE7=White Swing
TTITLE8=Sea Which is in Nobody
TTITLE9=the Strawberry Statement  once again
TTITLE10=A star should be located in empty
TTITLE11=the child no mother is 
TTITLE12=In Distant World
TTITLE13=Please Give Wings
TTITLE14=Wind
EXTD=
EXTT0=
EXTT1=
EXTT2=
EXTT3=
EXTT4=
EXTT5=
EXTT6=
EXTT7=
EXTT8=
EXTT9=
EXTT10=
EXTT11=
EXTT12=
EXTT13=
EXTT14=
PLAYORDER=
